<svg width="11" height="16" viewBox="0 0 11 16" fill="none" xmlns="http://www.w3.org/2000/svg">
<path d="M5.73883 15.14C4.09883 15.14 2.75216 14.7533 1.69883 13.98C0.645495 13.1933 0.0788281 12.0733 -0.00117187 10.62H4.17883C4.21883 11.1133 4.36549 11.4733 4.61883 11.7C4.87216 11.9267 5.19883 12.04 5.59883 12.04C5.95883 12.04 6.25216 11.9533 6.47883 11.78C6.71883 11.5933 6.83883 11.34 6.83883 11.02C6.83883 10.6067 6.64549 10.2867 6.25883 10.06C5.87216 9.83333 5.24549 9.58 4.37883 9.3C3.45883 8.99333 2.71216 8.7 2.13883 8.42C1.57883 8.12667 1.08549 7.70667 0.658828 7.16C0.245495 6.6 0.0388281 5.87333 0.0388281 4.98C0.0388281 4.07333 0.265495 3.3 0.718828 2.66C1.17216 2.00667 1.79883 1.51333 2.59883 1.18C3.39883 0.846666 4.3055 0.68 5.31883 0.68C6.95883 0.68 8.2655 1.06667 9.23883 1.84C10.2255 2.6 10.7522 3.67333 10.8188 5.06H6.55883C6.5455 4.63333 6.41216 4.31333 6.15883 4.1C5.91883 3.88667 5.6055 3.78 5.21883 3.78C4.9255 3.78 4.6855 3.86667 4.49883 4.04C4.31216 4.21333 4.21883 4.46 4.21883 4.78C4.21883 5.04667 4.31883 5.28 4.51883 5.48C4.73216 5.66667 4.99216 5.83333 5.29883 5.98C5.6055 6.11333 6.05883 6.28667 6.65883 6.5C7.55216 6.80667 8.2855 7.11333 8.85883 7.42C9.4455 7.71333 9.9455 8.13333 10.3588 8.68C10.7855 9.21333 10.9988 9.89333 10.9988 10.72C10.9988 11.56 10.7855 12.3133 10.3588 12.98C9.9455 13.6467 9.33883 14.1733 8.53883 14.56C7.75216 14.9467 6.81883 15.14 5.73883 15.14Z" fill="url(#paint0_linear_470_3)"/>
<defs>
<linearGradient id="paint0_linear_470_3" x1="12" y1="7.5" x2="-1" y2="7.5" gradientUnits="userSpaceOnUse">
<stop stop-color="#E12ADD"/>
<stop offset="1" stop-color="#63E4FF"/>
</linearGradient>
</defs>
</svg>
