<svg width="13" height="13" viewBox="0 0 13 13" fill="none" xmlns="http://www.w3.org/2000/svg">
<g clip-path="url(#clip0_353_160)">
<path d="M1.625 5.95833C1.625 3.91571 1.625 2.89413 2.25983 2.25983C2.89413 1.625 3.91571 1.625 5.95833 1.625H7.04167C9.08429 1.625 10.1059 1.625 10.7402 2.25983C11.375 2.89413 11.375 3.91571 11.375 5.95833V7.04167C11.375 9.08429 11.375 10.1059 10.7402 10.7402C10.1059 11.375 9.08429 11.375 7.04167 11.375H5.95833C3.91571 11.375 2.89413 11.375 2.25983 10.7402C1.625 10.1059 1.625 9.08429 1.625 7.04167V5.95833Z" stroke="white" stroke-width="2"/>
<path d="M8.9375 4.875C9.38623 4.875 9.75 4.51123 9.75 4.0625C9.75 3.61377 9.38623 3.25 8.9375 3.25C8.48877 3.25 8.125 3.61377 8.125 4.0625C8.125 4.51123 8.48877 4.875 8.9375 4.875Z" fill="white"/>
<path d="M6.5 8.125C7.39746 8.125 8.125 7.39746 8.125 6.5C8.125 5.60254 7.39746 4.875 6.5 4.875C5.60254 4.875 4.875 5.60254 4.875 6.5C4.875 7.39746 5.60254 8.125 6.5 8.125Z" stroke="white" stroke-width="2"/>
</g>
<defs>
<clipPath id="clip0_353_160">
<rect width="13" height="13" fill="white"/>
</clipPath>
</defs>
</svg>
