<svg width="13" height="13" viewBox="0 0 13 13" fill="none" xmlns="http://www.w3.org/2000/svg">
<path d="M10.2917 1.625C10.579 1.625 10.8545 1.73914 11.0577 1.9423C11.2609 2.14547 11.375 2.42102 11.375 2.70833V10.2917C11.375 10.579 11.2609 10.8545 11.0577 11.0577C10.8545 11.2609 10.579 11.375 10.2917 11.375H2.70833C2.42102 11.375 2.14547 11.2609 1.9423 11.0577C1.73914 10.8545 1.625 10.579 1.625 10.2917V2.70833C1.625 2.42102 1.73914 2.14547 1.9423 1.9423C2.14547 1.73914 2.42102 1.625 2.70833 1.625H10.2917ZM10.0208 10.0208V7.15C10.0208 6.68167 9.83479 6.23253 9.50363 5.90137C9.17247 5.57021 8.72333 5.38417 8.255 5.38417C7.79458 5.38417 7.25833 5.66583 6.99833 6.08833V5.48708H5.48708V10.0208H6.99833V7.35042C6.99833 6.93333 7.33417 6.59208 7.75125 6.59208C7.95237 6.59208 8.14526 6.67198 8.28747 6.81419C8.42969 6.95641 8.50958 7.14929 8.50958 7.35042V10.0208H10.0208ZM3.72667 4.63667C3.96801 4.63667 4.19948 4.54079 4.37013 4.37013C4.54079 4.19948 4.63667 3.96801 4.63667 3.72667C4.63667 3.22292 4.23042 2.81125 3.72667 2.81125C3.48388 2.81125 3.25104 2.9077 3.07937 3.07937C2.9077 3.25104 2.81125 3.48388 2.81125 3.72667C2.81125 4.23042 3.22292 4.63667 3.72667 4.63667ZM4.47958 10.0208V5.48708H2.97917V10.0208H4.47958Z" fill="white"/>
</svg>
